{
  "asset": {
    "generator": "Khronos glTF Blender I/O v1.6.16",
    "version": "2.0"
  },
  "scene": 0,
  "scenes": [
    {
      "name": "Scene",
      "nodes": [
        0
      ]
    }
  ],
  "nodes": [
    {
      "mesh": 0,
      "name": "ArmChair_01"
    }
  ],
  "materials": [
    {
      "doubleSided": true,
      "name": "Armchair_01",
      "normalTexture": {
        "index": 0
      },
      "pbrMetallicRoughness": {
        "baseColorTexture": {
          "index": 1
        },
        "metallicRoughnessTexture": {
          "index": 2
        }
      }
    }
  ],
  "meshes": [
    {
      "name": "Cylinder.001",
      "primitives": [
        {
          "attributes": {
            "POSITION": 0,
            "NORMAL": 1,
            "TEXCOORD_0": 2
          },
          "indices": 3,
          "material": 0
        }
      ]
    }
  ],
  "textures": [
    {
      "sampler": 0,
      "source": 0
    },
    {
      "sampler": 0,
      "source": 1
    },
    {
      "sampler": 0,
      "source": 2
    }
  ],
  "images": [
    {
      "mimeType": "image/jpeg",
      "name": "Armchair_01_nor_gl",
      "uri": "textures/Armchair_01_nor_gl_1k.jpg"
    },
    {
      "mimeType": "image/jpeg",
      "name": "Armchair_01_diff",
      "uri": "textures/Armchair_01_diff_1k.jpg"
    },
    {
      "mimeType": "image/jpeg",
      "name": "Armchair_01_arm",
      "uri": "textures/Armchair_01_arm_1k.jpg"
    }
  ],
  "accessors": [
    {
      "bufferView": 0,
      "componentType": 5126,
      "count": 3758,
      "max": [
        0.4242154657840729,
        1.064656138420105,
        0.34845367074012756
      ],
      "min": [
        -0.4242154359817505,
        -0.0004314967372920364,
        -0.4173066020011902
      ],
      "type": "VEC3"
    },
    {
      "bufferView": 1,
      "componentType": 5126,
      "count": 3758,
      "type": "VEC3"
    },
    {
      "bufferView": 2,
      "componentType": 5126,
      "count": 3758,
      "type": "VEC2"
    },
    {
      "bufferView": 3,
      "componentType": 5123,
      "count": 16878,
      "type": "SCALAR"
    }
  ],
  "bufferViews": [
    {
      "buffer": 0,
      "byteLength": 45096,
      "byteOffset": 0
    },
    {
      "buffer": 0,
      "byteLength": 45096,
      "byteOffset": 45096
    },
    {
      "buffer": 0,
      "byteLength": 30064,
      "byteOffset": 90192
    },
    {
      "buffer": 0,
      "byteLength": 33756,
      "byteOffset": 120256
    }
  ],
  "samplers": [
    {
      "magFilter": 9729,
      "minFilter": 9987
    }
  ],
  "buffers": [
    {
      "byteLength": 154012,
      "uri": "ArmChair_01.bin"
    }
  ]
}