{
  "asset": {
    "generator": "Khronos glTF Blender I/O v4.1.63",
    "version": "2.0"
  },
  "scene": 0,
  "scenes": [
    {
      "name": "blend_export",
      "nodes": [
        0
      ]
    }
  ],
  "nodes": [
    {
      "mesh": 0,
      "name": "chinese_armchair"
    }
  ],
  "materials": [
    {
      "doubleSided": true,
      "name": "chinese_armchair",
      "normalTexture": {
        "index": 0
      },
      "pbrMetallicRoughness": {
        "baseColorTexture": {
          "index": 1
        },
        "metallicFactor": 0,
        "metallicRoughnessTexture": {
          "index": 2
        }
      }
    }
  ],
  "meshes": [
    {
      "name": "Plane.001",
      "primitives": [
        {
          "attributes": {
            "POSITION": 0,
            "NORMAL": 1,
            "TEXCOORD_0": 2
          },
          "indices": 3,
          "material": 0
        }
      ]
    }
  ],
  "textures": [
    {
      "sampler": 0,
      "source": 0
    },
    {
      "sampler": 0,
      "source": 1
    },
    {
      "sampler": 0,
      "source": 2
    }
  ],
  "images": [
    {
      "mimeType": "image/jpeg",
      "name": "chinese_armchair_nor_gl",
      "uri": "textures/chinese_armchair_nor_gl_1k.jpg"
    },
    {
      "mimeType": "image/jpeg",
      "name": "chinese_armchair_diff",
      "uri": "textures/chinese_armchair_diff_1k.jpg"
    },
    {
      "mimeType": "image/jpeg",
      "name": "chinese_armchair_rough",
      "uri": "textures/chinese_armchair_arm_1k.jpg"
    }
  ],
  "accessors": [
    {
      "bufferView": 0,
      "componentType": 5126,
      "count": 2043,
      "max": [
        0.4248844087123871,
        1.5874550342559814,
        0.40114158391952515
      ],
      "min": [
        -0.42339035868644714,
        -0.000027831065381178632,
        -0.3875211775302887
      ],
      "type": "VEC3"
    },
    {
      "bufferView": 1,
      "componentType": 5126,
      "count": 2043,
      "type": "VEC3"
    },
    {
      "bufferView": 2,
      "componentType": 5126,
      "count": 2043,
      "type": "VEC2"
    },
    {
      "bufferView": 3,
      "componentType": 5123,
      "count": 8025,
      "type": "SCALAR"
    }
  ],
  "bufferViews": [
    {
      "buffer": 0,
      "byteLength": 24516,
      "byteOffset": 0,
      "target": 34962
    },
    {
      "buffer": 0,
      "byteLength": 24516,
      "byteOffset": 24516,
      "target": 34962
    },
    {
      "buffer": 0,
      "byteLength": 16344,
      "byteOffset": 49032,
      "target": 34962
    },
    {
      "buffer": 0,
      "byteLength": 16050,
      "byteOffset": 65376,
      "target": 34963
    }
  ],
  "samplers": [
    {
      "magFilter": 9729,
      "minFilter": 9987
    }
  ],
  "buffers": [
    {
      "byteLength": 81428,
      "uri": "chinese_armchair.bin"
    }
  ]
}